@startuml
'https://plantuml.com/class-diagram

class App {
  + thepath( filename: String ): void
  + main(args: String[]): void
}
class Scanner
interface Path
class Paths
abstract class Charset
class StandardCharsets
class Files
class IOException

App ..> Scanner
App ..> Paths
App ..> Files
App ..> StandardCharsets
App ..> IOException
Files ...> Path
Files ..> Charset

@enduml