@startuml
'https://plantuml.com/class-diagram

class App {
 +main(args: String[]): void
}

class FileUtility {
 +parseFile(fileName: String): String
}
class File
class FileNotFoundException
class Scanner

App ..>FileUtility
FileUtility ..> Scanner
FileUtility ..> FileNotFoundException
FileUtility ..> File
FileNotFoundException ..> Exception

@enduml